<?xml version="1.0" encoding="UTF-8" standalone="no"?><!DOCTYPE svg PUBLIC "-//W3C//DTD SVG 1.1//EN" "http://www.w3.org/Graphics/SVG/1.1/DTD/svg11.dtd"><svg width="100%" height="100%" viewBox="0 0 1276 274" version="1.1" xmlns="http://www.w3.org/2000/svg" xmlns:xlink="http://www.w3.org/1999/xlink" xml:space="preserve" xmlns:serif="http://www.serif.com/" style="fill-rule:evenodd;clip-rule:evenodd;stroke-linejoin:round;stroke-miterlimit:2;"><g transform="matrix(1.33333,0,0,1.33333,-2.77778,3.64583)"><g transform="matrix(266.667,0,0,266.667,0,200)"><path d="M0.084,-0l0,-0.414l-0.076,-0l-0,-0.114l0.076,-0l0,-0.018c0.001,-0.07 0.025,-0.124 0.07,-0.162c0.043,-0.035 0.103,-0.052 0.18,-0.052c0.048,-0 0.106,0.009 0.172,0.028l-0.023,0.13l-0.027,-0.007c-0.035,-0.01 -0.073,-0.015 -0.112,-0.015c-0.063,0 -0.094,0.029 -0.094,0.086l-0,0.01l0.103,-0l0,0.114l-0.103,-0l-0,0.414l-0.166,0Zm0.498,0l-0.166,0l0,-0.528l0.166,-0l-0,0.528Z" style="fill:#333;fill-rule:nonzero;"/></g><g transform="matrix(266.667,0,0,266.667,166.865,200)"><path d="M0.197,-0.528l0.006,0.062c0.036,-0.048 0.086,-0.072 0.151,-0.072c0.055,-0 0.096,0.016 0.123,0.049c0.027,0.033 0.041,0.083 0.042,0.149l0,0.34l-0.165,0l0,-0.333c0,-0.027 -0.005,-0.047 -0.016,-0.059c-0.011,-0.013 -0.03,-0.019 -0.059,-0.019c-0.032,-0 -0.056,0.013 -0.071,0.038l-0,0.373l-0.165,0l-0,-0.528l0.154,-0Z" style="fill:#333;fill-rule:nonzero;"/></g><g transform="matrix(266.667,0,0,266.667,314.589,200)"><path d="M0.302,0.01c-0.081,-0 -0.147,-0.024 -0.197,-0.073c-0.05,-0.048 -0.075,-0.111 -0.075,-0.188l-0,-0.014c-0,-0.054 0.01,-0.102 0.03,-0.143c0.02,-0.042 0.049,-0.074 0.087,-0.096c0.039,-0.023 0.084,-0.034 0.137,-0.034c0.074,-0 0.133,0.023 0.176,0.069c0.043,0.046 0.064,0.11 0.064,0.193l0,0.064l-0.327,-0c0.006,0.029 0.019,0.052 0.039,0.069c0.02,0.017 0.045,0.026 0.077,0.026c0.052,-0 0.093,-0.018 0.122,-0.055l0.075,0.089c-0.02,0.028 -0.049,0.051 -0.087,0.068c-0.038,0.016 -0.078,0.025 -0.121,0.025Zm-0.019,-0.421c-0.048,-0 -0.077,0.032 -0.086,0.096l0.166,-0l0,-0.013c0.001,-0.026 -0.006,-0.047 -0.02,-0.061c-0.014,-0.015 -0.034,-0.022 -0.06,-0.022Z" style="fill:#333;fill-rule:nonzero;"/></g><g transform="matrix(266.667,0,0,266.667,457.104,200)"><path d="M0.481,-0.332l-0.331,-0l-0,0.332l-0.06,-0l-0,-0.711l0.44,0l0,0.051l-0.38,0l-0,0.277l0.331,-0l0,0.051Z" style="fill:#026b00;fill-rule:nonzero;"/></g><g transform="matrix(266.667,0,0,266.667,580.37,200)"><path d="M0.044,-0.272c-0,-0.051 0.01,-0.096 0.029,-0.137c0.02,-0.041 0.048,-0.073 0.084,-0.095c0.036,-0.023 0.077,-0.034 0.122,-0.034c0.071,-0 0.128,0.025 0.171,0.074c0.044,0.049 0.066,0.115 0.066,0.196l-0,0.012c-0,0.051 -0.01,0.097 -0.03,0.138c-0.02,0.041 -0.047,0.072 -0.083,0.095c-0.036,0.022 -0.077,0.033 -0.123,0.033c-0.07,-0 -0.127,-0.025 -0.17,-0.074c-0.044,-0.05 -0.066,-0.115 -0.066,-0.196l-0,-0.012Zm0.059,0.016c-0,0.063 0.016,0.115 0.049,0.156c0.032,0.04 0.075,0.06 0.128,0.06c0.053,0 0.096,-0.02 0.128,-0.06c0.033,-0.041 0.05,-0.094 0.05,-0.161l-0,-0.011c-0,-0.04 -0.008,-0.077 -0.023,-0.111c-0.015,-0.033 -0.036,-0.059 -0.063,-0.078c-0.027,-0.018 -0.058,-0.027 -0.093,-0.027c-0.052,-0 -0.094,0.02 -0.127,0.061c-0.033,0.041 -0.049,0.094 -0.049,0.16l-0,0.011Z" style="fill:#026b00;fill-rule:nonzero;"/></g><g transform="matrix(266.667,0,0,266.667,705.719,200)"><path d="M0.044,-0.272c-0,-0.051 0.01,-0.096 0.029,-0.137c0.02,-0.041 0.048,-0.073 0.084,-0.095c0.036,-0.023 0.077,-0.034 0.122,-0.034c0.071,-0 0.128,0.025 0.171,0.074c0.044,0.049 0.066,0.115 0.066,0.196l-0,0.012c-0,0.051 -0.01,0.097 -0.03,0.138c-0.02,0.041 -0.047,0.072 -0.083,0.095c-0.036,0.022 -0.077,0.033 -0.123,0.033c-0.07,-0 -0.127,-0.025 -0.17,-0.074c-0.044,-0.05 -0.066,-0.115 -0.066,-0.196l-0,-0.012Zm0.059,0.016c-0,0.063 0.016,0.115 0.049,0.156c0.032,0.04 0.075,0.06 0.128,0.06c0.053,0 0.096,-0.02 0.128,-0.06c0.033,-0.041 0.05,-0.094 0.05,-0.161l-0,-0.011c-0,-0.04 -0.008,-0.077 -0.023,-0.111c-0.015,-0.033 -0.036,-0.059 -0.063,-0.078c-0.027,-0.018 -0.058,-0.027 -0.093,-0.027c-0.052,-0 -0.094,0.02 -0.127,0.061c-0.033,0.041 -0.049,0.094 -0.049,0.16l-0,0.011Z" style="fill:#026b00;fill-rule:nonzero;"/></g><g transform="matrix(266.667,0,0,266.667,831.068,200)"><path d="M0.053,-0.269c-0,-0.082 0.018,-0.147 0.055,-0.196c0.036,-0.049 0.086,-0.073 0.149,-0.073c0.071,-0 0.125,0.028 0.163,0.084l-0,-0.296l0.058,0l0,0.75l-0.055,-0l-0.002,-0.07c-0.038,0.053 -0.093,0.08 -0.165,0.08c-0.061,-0 -0.11,-0.025 -0.147,-0.074c-0.038,-0.049 -0.056,-0.115 -0.056,-0.198l-0,-0.007Zm0.059,0.01c-0,0.068 0.013,0.121 0.04,0.16c0.027,0.039 0.065,0.058 0.115,0.058c0.072,-0 0.123,-0.032 0.153,-0.095l-0,-0.248c-0.03,-0.069 -0.081,-0.103 -0.152,-0.103c-0.05,-0 -0.088,0.019 -0.115,0.058c-0.028,0.038 -0.041,0.095 -0.041,0.17Z" style="fill:#026b00;fill-rule:nonzero;"/></g></g></svg>